PathFileType	4	(x/y/z)	S05_PSF_T01
DataRate	CameraRate	NumFrames	NumMarkers	Units	OrigDataRate	OrigDataStartFrame	OrigNumFrames
240	240	9	50	mm	240	54	427
Frame#	Time	Sternum			R.Acromium			L.Acromium			Top.Head			R.ASIS			L.ASIS			R.PSIS			L.PSIS			R.Great.Tro			L.Great.Tro			R.Iliac.Crest			L.Iliac.Crest			V.Sacral			R.Thigh.Upper.Post			R.Thigh.Lower.Ant			R.Thigh.Lower.Post			R.Thigh.Upper.Ant			R.Knee.Lat			R.Knee.Med			R.Shank.Upper.Post			R.Shank.Lower.Ant			R.Shank.Lower.Post			R.Shank.Upper.Ant			R.Ankle.Lat			R.Ankle.Med			R.Heel.Upper			R.Heel.Med			R.Heel.Lat			R.Toe.Lat			R.Toe.Med			R.Toe.Tip			L.Thigh.Upper.Post			L.Thigh.Lower.Ant			L.Thigh.Lower.Post			L.Thigh.Upper.Ant			L.Knee.Lat			L.Shank.Upper.Post			L.Shank.Lower.Ant			L.Shank.Lower.Post			L.Shank.Upper.Ant			L.Ankle.Lat			L.Ankle.Med			L.Heel.Upper			L.Heel.Med			L.Heel.Lat			L.Toe.Lat			L.Toe.Med			L.Toe.Tip			Cervical.Spine			Back			
		X1	Y1	Z1	X2	Y2	Z2	X3	Y3	Z3	X4	Y4	Z4	X5	Y5	Z5	X6	Y6	Z6	X7	Y7	Z7	X8	Y8	Z8	X9	Y9	Z9	X10	Y10	Z10	X11	Y11	Z11	X12	Y12	Z12	X13	Y13	Z13	X14	Y14	Z14	X15	Y15	Z15	X16	Y16	Z16	X17	Y17	Z17	X18	Y18	Z18	X19	Y19	Z19	X20	Y20	Z20	X21	Y21	Z21	X22	Y22	Z22	X23	Y23	Z23	X24	Y24	Z24	X25	Y25	Z25	X26	Y26	Z26	X27	Y27	Z27	X28	Y28	Z28	X29	Y29	Z29	X30	Y30	Z30	X31	Y31	Z31	X32	Y32	Z32	X33	Y33	Z33	X34	Y34	Z34	X35	Y35	Z35	X36	Y36	Z36	X37	Y37	Z37	X38	Y38	Z38	X39	Y39	Z39	X40	Y40	Z40	X41	Y41	Z41	X42	Y42	Z42	X43	Y43	Z43	X44	Y44	Z44	X45	Y45	Z45	X46	Y46	Z46	X47	Y47	Z47	X48	Y48	Z48	X49	Y49	Z49	X50	Y50	Z50	

54	0.22083	-1251.8	1250.5	292.31	-1353.2	1513.5	441.03	-1368.9	1517.5	111.64	-1361	1819.3	253.46	NaN	NaN	NaN	NaN	NaN	NaN	NaN	NaN	NaN	NaN	NaN	NaN	-1421.7	908.2	480.17	-1363	927.48	94.169	-1418.1	1077.4	457.85	-1385.4	1079.7	122.23	-1523.5	976.96	283.31	-1366.3	692.5	495.32	NaN	NaN	NaN	-1364.6	600.16	481.18	-1300.6	702.45	480.27	-1378.4	506.02	471.91	-1351.9	478.44	340.24	-1597.7	410.83	443.35	-1614.8	322.73	442.21	-1656.7	366.05	422.15	-1551.6	366.34	461.51	-1708	272.55	418.01	-1668.7	274.27	336.69	-1770.7	303.5	347.27	-1785.3	279.85	316.03	-1799.1	284.36	380.51	-1739.2	132.4	442.75	-1691.5	106.58	332.85	NaN	NaN	NaN	-1305.9	694.13	107.26	-1212.7	641.17	140.36	-1276.9	604.93	126.99	-1233.8	727.77	120.61	-1242.1	521.66	136.81	-1284.9	316.44	132.47	-1212.7	264.86	145.53	-1282.8	244.89	151.19	-1220.2	334.46	131.74	-1245.1	109.55	165.48	-1215.6	129.08	253.05	-1306.6	66.194	221.06	-1289.9	41.871	252.47	-1299.2	38.844	191.98	-1118.6	40.297	135.37	-1094.1	53.923	253.43	-1031.5	66.336	197.32	-1411.3	1555.8	280.86	-1518.9	1278.6	290.1
55	0.225	-1246.4	1250.9	291.95	-1347.6	1514	440.6	-1363.3	1518.1	111.21	-1355.4	1819.9	252.88	NaN	NaN	NaN	NaN	NaN	NaN	NaN	NaN	NaN	NaN	NaN	NaN	-1415.8	908.7	479.86	-1358.4	928.13	93.711	-1413	1078	457.44	-1380.4	1080.3	121.76	-1518.5	977.46	283.04	-1357.9	693.59	495.09	NaN	NaN	NaN	-1355	601.21	480.99	-1292.3	704.15	479.55	-1367.2	506.94	471.63	-1339.9	481.17	339.17	-1586.7	412.47	443.19	-1604.1	324.39	441.96	-1646	367.98	422.09	-1540.6	367.83	461.22	-1697.4	274.53	417.79	-1658.3	276.31	336.32	-1760.4	305.43	347.1	-1775	281.7	315.94	-1788.8	286.38	380.46	-1728.5	134.59	442.71	-1681	108.56	332.82	NaN	NaN	NaN	-1302.3	694.52	106.98	-1209.4	641.13	140.02	-1273.8	605.18	126.76	-1230.1	727.81	120.29	-1239.4	521.66	136.64	-1283.7	316.7	132.84	-1211.7	264.72	145.57	-1281.9	245.12	151.53	-1218.9	334.26	131.74	-1244.7	109.64	165.64	-1215.3	129.04	253.2	-1305.6	65.952	220.99	-1289.9	41.855	252.51	-1299.2	38.922	192.01	-1118.6	40.255	135.37	-1094	53.666	253.49	-1031.4	66.001	197.39	-1405.8	1556.5	280.43	-1513.7	1279.4	289.52
56	0.22917	-1241	1251.3	291.61	-1342.1	1514.6	440.18	-1357.8	1518.8	110.8	-1349.9	1820.6	252.34	NaN	NaN	NaN	NaN	NaN	NaN	NaN	NaN	NaN	NaN	NaN	NaN	-1409.9	909.27	479.57	-1353.9	928.78	93.281	-1408	1078.6	457.04	-1375.5	1081	121.31	-1513.5	978.01	282.81	-1349.4	694.78	494.83	NaN	NaN	NaN	-1345.4	602.35	480.76	-1283.8	705.99	478.73	-1356.1	507.98	471.29	-1327.7	483.91	338.09	-1575.7	413.98	442.95	-1593.2	325.91	441.68	-1635.2	369.68	421.98	-1529.6	369.23	460.88	-1686.5	276.23	417.54	-1647.7	278.13	335.9	-1750	306.97	346.92	-1764.5	283.12	315.85	-1778.4	287.95	380.38	-1717.5	136.47	442.66	-1670	110.32	332.76	NaN	NaN	NaN	-1298.9	694.91	106.72	-1206.2	641.09	139.7	-1270.7	605.43	126.53	-1226.5	727.86	119.97	-1236.9	521.66	136.47	-1282.6	316.97	133.24	-1210.8	264.58	145.58	-1281	245.34	151.89	-1217.6	334.08	131.72	-1244.4	109.73	165.8	-1215.1	129	253.34	-1304.8	65.742	220.93	-1289.9	41.835	252.54	-1299.2	38.998	192.03	-1118.6	40.22	135.36	-1094	53.444	253.54	-1031.3	65.714	197.45	-1400.3	1557.3	280.01	-1508.5	1280.3	288.93
57	0.23333	-1235.7	1251.7	291.28	-1336.6	1515.2	439.79	-1352.2	1519.5	110.41	-1344.4	1821.3	251.84	NaN	NaN	NaN	NaN	NaN	NaN	NaN	NaN	NaN	NaN	NaN	NaN	-1404.1	909.92	479.31	-1349.5	929.44	92.881	-1402.9	1079.3	456.65	-1370.6	1081.7	120.87	-1508.6	978.62	282.6	-1341	696.06	494.56	NaN	NaN	NaN	-1335.8	603.58	480.51	-1275.4	707.97	477.81	-1345	509.13	470.89	-1315.6	486.61	337.01	-1564.7	415.35	442.66	-1582.2	327.27	441.38	-1624.3	371.13	421.82	-1518.4	370.54	460.48	-1675.5	277.65	417.27	-1637	279.72	335.44	-1739.4	308.11	346.73	-1753.9	284.11	315.74	-1767.7	289.07	380.28	-1705.9	138.03	442.6	-1658.5	111.83	332.66	NaN	NaN	NaN	-1295.5	695.3	106.47	-1203	641.05	139.38	-1267.7	605.68	126.3	-1222.9	727.89	119.67	-1234.4	521.66	136.3	-1281.5	317.25	133.66	-1209.9	264.45	145.57	-1280.2	245.56	152.27	-1216.5	333.91	131.69	-1244.1	109.82	165.95	-1214.8	128.98	253.47	-1304.1	65.563	220.87	-1289.9	41.813	252.57	-1299.1	39.071	192.06	-1118.6	40.192	135.35	-1093.9	53.252	253.58	-1031.2	65.467	197.49	-1394.8	1558.1	279.62	-1503.4	1281.2	288.34
58	0.2375	-1230.4	1252.2	290.97	-1331.1	1515.7	439.41	-1346.7	1520.2	110.04	-1338.9	1822.1	251.38	NaN	NaN	NaN	NaN	NaN	NaN	NaN	NaN	NaN	NaN	NaN	NaN	-1398.3	910.64	479.06	-1345.1	930.09	92.509	-1397.8	1080	456.28	-1365.7	1082.4	120.46	-1503.7	979.29	282.43	-1332.6	697.41	494.28	NaN	NaN	NaN	-1326.2	604.91	480.22	-1266.9	710.09	476.81	-1334	510.38	470.44	-1303.5	489.26	335.95	-1553.7	416.57	442.31	-1571.1	328.47	441.04	-1613.3	372.33	421.61	-1507.2	371.74	460.04	-1664.3	278.79	416.97	-1626.2	281.06	334.94	-1728.8	308.87	346.52	-1743.2	284.67	315.61	-1756.9	289.74	380.15	-1694	139.26	442.52	-1646.7	113.1	332.52	NaN	NaN	NaN	-1292.1	695.69	106.23	-1199.9	641	139.07	-1264.8	605.94	126.09	-1219.5	727.93	119.37	-1232	521.66	136.14	-1280.5	317.52	134.1	-1209.1	264.33	145.54	-1279.5	245.78	152.65	-1215.4	333.76	131.65	-1243.8	109.92	166.08	-1214.5	128.97	253.58	-1303.4	65.416	220.82	-1289.9	41.791	252.6	-1299.1	39.142	192.08	-1118.6	40.167	135.34	-1093.9	53.085	253.61	-1031.2	65.255	197.53	-1389.3	1558.9	279.24	-1498.2	1282.1	287.75
59	0.24167	-1225.1	1252.7	290.66	-1325.6	1516.4	439.04	-1341.3	1521	109.69	-1333.4	1822.9	250.97	NaN	NaN	NaN	NaN	NaN	NaN	NaN	NaN	NaN	NaN	NaN	NaN	-1392.6	911.42	478.84	-1340.7	930.75	92.165	-1392.8	1080.8	455.92	-1360.9	1083.1	120.07	-1498.8	980.02	282.3	-1324.2	698.83	493.99	NaN	NaN	NaN	-1316.7	606.31	479.92	-1258.4	712.34	475.72	-1323.1	511.73	469.94	-1291.7	491.83	334.93	-1542.8	417.64	441.9	-1560	329.5	440.67	-1602.3	373.29	421.34	-1495.9	372.82	459.56	-1652.9	279.63	416.66	-1615.2	282.15	334.4	-1718	309.23	346.3	-1732.3	284.81	315.47	-1746	289.96	379.98	-1681.7	140.16	442.43	-1634.5	114.12	332.35	NaN	NaN	NaN	-1288.8	696.08	106.01	-1196.9	640.94	138.75	-1262	606.19	125.88	-1216	727.95	119.07	-1229.7	521.66	135.98	-1279.6	317.79	134.52	-1208.4	264.21	145.5	-1278.7	245.99	153.02	-1214.3	333.61	131.59	-1243.5	110.03	166.21	-1214.3	128.97	253.68	-1302.9	65.301	220.77	-1289.8	41.769	252.63	-1299.1	39.213	192.11	-1118.6	40.145	135.32	-1093.9	52.94	253.62	-1031.1	65.072	197.55	-1383.8	1559.7	278.88	-1493	1283.1	287.17
60	0.24583	-1219.9	1253.3	290.36	-1320.2	1517	438.68	-1335.9	1521.8	109.35	-1327.9	1823.7	250.6	NaN	NaN	NaN	NaN	NaN	NaN	NaN	NaN	NaN	NaN	NaN	NaN	-1386.9	912.27	478.65	-1336.4	931.4	91.847	-1387.8	1081.6	455.57	-1356.1	1083.9	119.7	-1494	980.79	282.19	-1315.8	700.31	493.7	NaN	NaN	NaN	-1307.1	607.78	479.59	-1249.8	714.71	474.55	-1312.3	513.16	469.4	-1280.2	494.3	333.96	-1531.9	418.54	441.45	-1548.7	330.35	440.28	-1591.3	374	421.04	-1484.5	373.79	459.04	-1641.5	280.19	416.32	-1604.1	282.99	333.82	-1707.1	309.19	346.05	-1721.2	284.52	315.3	-1734.9	289.75	379.78	-1669	140.75	442.33	-1622	114.88	332.15	NaN	NaN	NaN	-1285.6	696.48	105.79	-1194	640.87	138.44	-1259.2	606.45	125.67	-1212.7	727.97	118.78	-1227.5	521.67	135.82	-1278.6	318.07	134.91	-1207.7	264.1	145.44	-1278	246.21	153.36	-1213.3	333.48	131.53	-1243.2	110.13	166.32	-1214.1	128.98	253.77	-1302.5	65.216	220.73	-1289.8	41.749	252.66	-1299.1	39.283	192.13	-1118.6	40.126	135.3	-1093.8	52.812	253.63	-1031	64.912	197.56	-1378.4	1560.5	278.53	-1487.9	1284	286.6
61	0.25	-1214.7	1253.9	290.05	-1314.7	1517.7	438.33	-1330.5	1522.6	109.03	-1322.3	1824.5	250.27	NaN	NaN	NaN	NaN	NaN	NaN	NaN	NaN	NaN	NaN	NaN	NaN	-1381.2	913.18	478.47	-1332.1	932.05	91.554	-1382.7	1082.5	455.23	-1351.3	1084.6	119.35	-1489.2	981.61	282.13	-1307.4	701.85	493.41	-1230.4	629.52	455.15	-1297.6	609.33	479.24	-1241.3	717.19	473.33	-1301.6	514.67	468.81	-1269	496.66	333.05	-1521	419.29	440.95	-1537.4	331.02	439.86	-1580.2	374.47	420.69	-1473	374.65	458.47	-1629.8	280.46	415.96	-1592.9	283.58	333.2	-1696.1	308.77	345.77	-1710	283.82	315.1	-1723.6	289.11	379.53	-1656	141.01	442.23	-1609.1	115.39	331.92	NaN	NaN	NaN	-1282.5	696.87	105.59	-1191.1	640.79	138.12	-1256.5	606.71	125.48	-1209.4	727.97	118.49	-1225.3	521.68	135.67	-1277.8	318.33	135.28	-1207	264	145.37	-1277.3	246.42	153.68	-1212.3	333.36	131.46	-1243	110.24	166.43	-1213.9	129	253.84	-1302.2	65.161	220.7	-1289.8	41.732	252.69	-1299.1	39.353	192.15	-1118.6	40.108	135.28	-1093.8	52.698	253.64	-1031	64.771	197.57	-1373	1561.4	278.19	-1482.8	1285	286.04
62	0.25417	-1209.6	1254.5	289.74	-1309.2	1518.3	437.99	-1325.1	1523.5	108.73	-1316.8	1825.3	249.98	NaN	NaN	NaN	NaN	NaN	NaN	NaN	NaN	NaN	NaN	NaN	NaN	-1375.6	914.14	478.3	-1327.9	932.7	91.285	-1377.7	1083.5	454.9	-1346.6	1085.4	119.01	-1484.3	982.48	282.09	-1299	703.43	493.13	-1222.9	631.93	454.43	-1288.2	610.94	478.87	-1232.8	719.76	472.08	-1291	516.25	468.19	-1258.2	498.92	332.2	-1510.1	419.87	440.41	-1525.9	331.51	439.41	-1569.1	374.69	420.29	-1461.6	375.39	457.88	-1618	280.44	415.58	-1581.6	283.91	332.55	-1685	307.97	345.47	-1698.7	282.72	314.87	-1712.2	288.06	379.25	-1642.6	140.98	442.11	-1595.8	115.65	331.67	NaN	NaN	NaN	-1279.4	697.26	105.41	-1188.3	640.7	137.8	-1253.9	606.96	125.29	-1206.2	727.97	118.19	-1223.3	521.69	135.53	-1276.9	318.59	135.59	-1206.4	263.9	145.3	-1276.6	246.63	153.95	-1211.4	333.26	131.39	-1242.8	110.35	166.52	-1213.6	129.03	253.91	-1301.9	65.133	220.67	-1289.8	41.721	252.72	-1299	39.423	192.17	-1118.6	40.09	135.26	-1093.8	52.594	253.64	-1030.9	64.644	197.57	-1367.6	1562.2	277.87	-1477.7	1286	285.5
